<svg id="svg8" xmlns="http://www.w3.org/2000/svg" viewBox="0 0 515.19 128.03"><rect y="27.06" width="22.2" height="100.57"/><polygon points="0 0.26 0 18.08 37.04 18.08 50.41 31.45 50.41 127.57 72.68 127.57 72.68 27 45.95 0.26 0 0.26"/><polygon points="56.33 0.32 74.15 18.14 87.52 18.14 100.88 31.52 100.88 127.63 123.16 127.63 123.16 27.06 96.43 0.32 56.33 0.32"/><polygon points="107.02 0.33 124.34 18.16 173.58 18.14 173.58 0.32 107.02 0.33"/><rect x="151.4" y="27.06" width="22.18" height="100.57"/><path d="M243.1,38.32q0-2.58,4.26-2.31c.68.06,1.25.09,1.69.09v0H250L263.62,67l13.69-30.88h.49v0h3.73a2.61,2.61,0,0,1,2.4,1.33,1.56,1.56,0,0,1,.27.89V92.88H276V57.74L267.49,78H259.8l-8.53-18.4V92.88H243.1Z" transform="translate(-42.4 -35.98)"/><path d="M315.52,83.55a8.31,8.31,0,0,1-3.29,6.58,10.73,10.73,0,0,1-7.06,2.53h-5.73a11.29,11.29,0,0,1-7.2-2.49,8.16,8.16,0,0,1-3.42-6.62v-25A8.18,8.18,0,0,1,292.24,52a11.28,11.28,0,0,1,7.2-2.53h5.73A10.9,10.9,0,0,1,312.23,52a8.23,8.23,0,0,1,3.29,6.58Zm-7.6-1.46v-22a4.39,4.39,0,0,0-.95-2.87A3.39,3.39,0,0,0,304.19,56H300a3.12,3.12,0,0,0-2.71,1.18,4.82,4.82,0,0,0-.84,2.87v22a4.79,4.79,0,0,0,.84,2.86A3.1,3.1,0,0,0,300,86.13h4.22A3.36,3.36,0,0,0,307,85,4.37,4.37,0,0,0,307.92,82.09Z" transform="translate(-42.4 -35.98)"/><path d="M348.94,92.84h-7.6V60.18a4.42,4.42,0,0,0-1-2.87,3.36,3.36,0,0,0-2.77-1.17H332a3.55,3.55,0,0,0-2.76,1,5.06,5.06,0,0,0-1.69,3.47V92.84H320l-.05-56.61h7.69V51.12a5.41,5.41,0,0,1,3.86-1.56h7.11a10.9,10.9,0,0,1,7.07,2.58,8.25,8.25,0,0,1,3.29,6.57Z" transform="translate(-42.4 -35.98)"/><path d="M376.09,59.91c0-2.48-1.2-3.73-3.6-3.73H364.4a2.66,2.66,0,0,0-2.07.82,3.19,3.19,0,0,0-.77,2.11h-7.65a10.07,10.07,0,0,1,2.54-6.75A8.37,8.37,0,0,1,363,49.47h11.86a8,8,0,0,1,6.31,2.85,9.61,9.61,0,0,1,2.4,6.62V92.88h-7.42V91.15A7.68,7.68,0,0,1,371.42,93h-7.29a11.33,11.33,0,0,1-7.2-2.49A8.14,8.14,0,0,1,353.51,84V75.51a8.18,8.18,0,0,1,3.42-6.62,11.32,11.32,0,0,1,7.2-2.53h8.62a6.1,6.1,0,0,1,3.34,1ZM376,82.49V77a4.45,4.45,0,0,0-.95-2.87,3.4,3.4,0,0,0-2.78-1.18h-7.55A3.11,3.11,0,0,0,362,74.11a4.76,4.76,0,0,0-.85,2.87v5.51a4.73,4.73,0,0,0,.85,2.86,3.08,3.08,0,0,0,2.71,1.18h7.55A3.37,3.37,0,0,0,375,85.35,4.42,4.42,0,0,0,376,82.49Z" transform="translate(-42.4 -35.98)"/><path d="M413.36,52.67a6.07,6.07,0,0,1,5.29-3.11h8.45a9.31,9.31,0,0,1,6.62,2.62,8.55,8.55,0,0,1,2.84,6.53V92.84H429V60.18a4.47,4.47,0,0,0-.95-2.87,3.39,3.39,0,0,0-2.78-1.17h-6c-1.49,0-2.45,1-2.89,3.06a6.83,6.83,0,0,0-.18,1.47V92.84h-7.64V59.47a3.17,3.17,0,0,0-2.36-3.11,4.12,4.12,0,0,0-1.33-.22H398.3c-1.78,0-2.66,2.09-2.66,6.26V92.84H388V49.56h6.8v2.67a5.77,5.77,0,0,1,4.76-2.67h8A6.63,6.63,0,0,1,413.36,52.67Z" transform="translate(-42.4 -35.98)"/><path d="M466.33,52.67a6.06,6.06,0,0,1,5.29-3.11h8.44a9.29,9.29,0,0,1,6.62,2.62,8.51,8.51,0,0,1,2.84,6.53V92.84h-7.59V60.18a4.42,4.42,0,0,0-1-2.87,3.38,3.38,0,0,0-2.78-1.17h-6c-1.48,0-2.44,1-2.89,3.06a6.83,6.83,0,0,0-.18,1.47V92.84h-7.64V59.47a3.16,3.16,0,0,0-2.35-3.11,4.18,4.18,0,0,0-1.34-.22h-6.48q-2.67,0-2.67,6.26V92.84H441V49.56h6.8v2.67a5.75,5.75,0,0,1,4.75-2.67h8A6.63,6.63,0,0,1,466.33,52.67Z" transform="translate(-42.4 -35.98)"/><path d="M516.72,59.91c0-2.48-1.2-3.73-3.6-3.73H505A2.62,2.62,0,0,0,503,57a3.25,3.25,0,0,0-.78,2.11h-7.64a10,10,0,0,1,2.53-6.75,8.39,8.39,0,0,1,6.53-2.89h11.86a8,8,0,0,1,6.31,2.85,9.61,9.61,0,0,1,2.4,6.62V92.88h-7.42V91.15A7.68,7.68,0,0,1,512.05,93h-7.28a11.29,11.29,0,0,1-7.2-2.49A8.14,8.14,0,0,1,494.15,84V75.51a8.18,8.18,0,0,1,3.42-6.62,11.28,11.28,0,0,1,7.2-2.53h8.62a6.1,6.1,0,0,1,3.33,1Zm-.14,22.58V77a4.39,4.39,0,0,0-1-2.87,3.39,3.39,0,0,0-2.78-1.18H505.3a3.11,3.11,0,0,0-2.71,1.18,4.76,4.76,0,0,0-.85,2.87v5.51a4.73,4.73,0,0,0,.85,2.86,3.08,3.08,0,0,0,2.71,1.18h7.55a3.36,3.36,0,0,0,2.78-1.18A4.37,4.37,0,0,0,516.58,82.49Z" transform="translate(-42.4 -35.98)"/><path d="M545.07,49.52A9.3,9.3,0,0,1,550,50.85V36.32h7.65V92.66h-7V90.57a10.69,10.69,0,0,1-6.44,2.09h-3.11A11.68,11.68,0,0,1,532,88.88a13.27,13.27,0,0,1-3.29-9.33V62.67q0-9.29,6.27-12.18a12.74,12.74,0,0,1,5.24-1ZM550,82.84V59.16a2.31,2.31,0,0,0-.88-2,4.68,4.68,0,0,0-2.76-1.11H541.6q-4.58,0-5.15,4.36a20.92,20.92,0,0,0-.18,2.8V79.42c0,2.31.25,3.84.75,4.58q1.34,2.13,4.58,2.13h3.82a5,5,0,0,0,4.05-2A2.11,2.11,0,0,0,550,82.84Z" transform="translate(-42.4 -35.98)"/><path d="M304,107.1c1.33,0,2.09.74,2.26,2.22v5.11H293.06v49.45h-8.13V114.43H271.78v-5.11a2.05,2.05,0,0,1,.69-1.6,2.34,2.34,0,0,1,1.62-.62Z" transform="translate(-42.4 -35.98)"/><path d="M337.67,154.55a8.31,8.31,0,0,1-3.29,6.58,10.75,10.75,0,0,1-7.06,2.53h-5.73a11.29,11.29,0,0,1-7.2-2.49,8.16,8.16,0,0,1-3.42-6.62v-25a8.18,8.18,0,0,1,3.42-6.62,11.28,11.28,0,0,1,7.2-2.53h5.73a10.9,10.9,0,0,1,7.06,2.57,8.23,8.23,0,0,1,3.29,6.58Zm-7.6-1.46v-22a4.39,4.39,0,0,0-.95-2.87,3.39,3.39,0,0,0-2.78-1.18h-4.22a3.12,3.12,0,0,0-2.71,1.18,4.82,4.82,0,0,0-.84,2.87v22a4.79,4.79,0,0,0,.84,2.86,3.1,3.1,0,0,0,2.71,1.18h4.22a3.36,3.36,0,0,0,2.78-1.18A4.37,4.37,0,0,0,330.07,153.09Z" transform="translate(-42.4 -35.98)"/><path d="M367.44,123.67a6.07,6.07,0,0,1,5.29-3.11h8.44a9.28,9.28,0,0,1,6.62,2.62,8.52,8.52,0,0,1,2.85,6.53v34.13H383V131.18a4.42,4.42,0,0,0-1-2.87,3.36,3.36,0,0,0-2.77-1.17h-6.05q-2.22,0-2.88,3.06a6.83,6.83,0,0,0-.18,1.47v32.17h-7.64V130.47a3.17,3.17,0,0,0-2.36-3.11,4.12,4.12,0,0,0-1.33-.22h-6.49q-2.67,0-2.67,6.26v30.44h-7.64V120.56h6.8v2.67a5.75,5.75,0,0,1,4.75-2.67h8A6.63,6.63,0,0,1,367.44,123.67Z" transform="translate(-42.4 -35.98)"/><path d="M417.83,130.91c0-2.48-1.2-3.73-3.6-3.73h-8.09a2.65,2.65,0,0,0-2.06.82,3.25,3.25,0,0,0-.78,2.11h-7.64a10.06,10.06,0,0,1,2.53-6.75,8.4,8.4,0,0,1,6.53-2.89h11.87a8,8,0,0,1,6.31,2.84,9.66,9.66,0,0,1,2.4,6.63v33.94h-7.43v-1.73a7.68,7.68,0,0,1-4.71,1.87h-7.28a11.29,11.29,0,0,1-7.2-2.49,8.14,8.14,0,0,1-3.42-6.58v-8.44a8.18,8.18,0,0,1,3.42-6.62,11.28,11.28,0,0,1,7.2-2.53h8.62a6.17,6.17,0,0,1,3.33,1Zm-.13,22.58V148a4.4,4.4,0,0,0-1-2.87,3.39,3.39,0,0,0-2.78-1.18h-7.55a3.12,3.12,0,0,0-2.71,1.18,4.82,4.82,0,0,0-.84,2.87v5.51a4.79,4.79,0,0,0,.84,2.86,3.1,3.1,0,0,0,2.71,1.18H414a3.36,3.36,0,0,0,2.78-1.18A4.37,4.37,0,0,0,417.7,153.49Z" transform="translate(-42.4 -35.98)"/><path d="M449.73,127.14l-4.48,0q-5.61,0-7.29,4a8,8,0,0,0-.58,3.15v29.55h-7.6l0-39.37c-1.3,0-2-.49-2-1.47v-2.57h8.76v4a5.93,5.93,0,0,1,2.26-2.93,6,6,0,0,1,3.51-1.16h7.42Z" transform="translate(-42.4 -35.98)"/><path d="M476.93,130.91c0-2.48-1.2-3.73-3.6-3.73h-8.09a2.62,2.62,0,0,0-2.06.82,3.25,3.25,0,0,0-.78,2.11h-7.65a10.07,10.07,0,0,1,2.54-6.75,8.39,8.39,0,0,1,6.53-2.89h11.86a8,8,0,0,1,6.31,2.84,9.66,9.66,0,0,1,2.4,6.63v33.94H477v-1.73a7.68,7.68,0,0,1-4.71,1.87H465a11.29,11.29,0,0,1-7.19-2.49,8.12,8.12,0,0,1-3.42-6.58v-8.44a8.15,8.15,0,0,1,3.42-6.62,11.27,11.27,0,0,1,7.19-2.53h8.62a6.18,6.18,0,0,1,3.34,1Zm-.14,22.58V148a4.39,4.39,0,0,0-1-2.87,3.39,3.39,0,0,0-2.78-1.18h-7.55a3.11,3.11,0,0,0-2.71,1.18A4.76,4.76,0,0,0,462,148v5.51a4.73,4.73,0,0,0,.85,2.86,3.08,3.08,0,0,0,2.71,1.18h7.55a3.36,3.36,0,0,0,2.78-1.18A4.37,4.37,0,0,0,476.79,153.49Z" transform="translate(-42.4 -35.98)"/><path d="M517.63,153.93q-.14,6.7-5.2,9.15a8.84,8.84,0,0,1-3.87.8H498a8.48,8.48,0,0,1-6.57-2.89,9.65,9.65,0,0,1-2.58-6.79V129.94a10.08,10.08,0,0,1,2.31-6.71,8.08,8.08,0,0,1,6.4-2.94h11.28a7.72,7.72,0,0,1,6.4,3.16,10.89,10.89,0,0,1,2.27,6.93v5.78a10.33,10.33,0,0,1-2.09,6.57,7.29,7.29,0,0,1-6.13,2.89h-13v8q0,3.56,3.6,3.56h6.76a3.37,3.37,0,0,0,2.42-.87,3,3,0,0,0,.87-2.42Zm-17.69-26.75c-2.4,0-3.6,1.25-3.6,3.73v8.14h9.74a4.37,4.37,0,0,0,2.86-1,3.36,3.36,0,0,0,1.18-2.78v-4.57a3.08,3.08,0,0,0-1.18-2.71,4.73,4.73,0,0,0-2.86-.85Z" transform="translate(-42.4 -35.98)"/><path d="M525.32,107.59q4.88,0,4.88,5t-4.88,5a4.92,4.92,0,0,1-3.69-1.31,5.06,5.06,0,0,1-1.29-3.71,4.49,4.49,0,0,1,5-5Zm3.73,56.07H521.4V120.47h7.65Z" transform="translate(-42.4 -35.98)"/></svg>